# 3ds Max Wavefront OBJ Exporter v0.97b - (c)2007 guruware
# File Created: 22.09.2015 15:10:55

mtllib 3d-model.mtl

#
# object Layer0_001
#

v  10.5531 0.0000 -0.5906
v  -10.5531 0.0000 -0.5906
v  -10.5531 25.1161 -0.5906
v  10.5531 25.1161 -0.5906
v  10.5531 25.1161 0.5906
v  10.5531 0.0000 0.5906
v  -10.5531 0.0000 0.5906
v  8.8979 1.8344 0.5906
v  8.8979 22.4943 0.5906
v  -8.5042 22.4943 0.5906
v  -10.5531 25.1161 0.5906
v  -8.5042 1.8344 0.5906
v  -8.5042 1.8344 -0.0000
v  -8.5042 22.4943 -0.0000
v  7.3231 1.8344 -0.0000
v  8.8979 1.8344 -0.0000
v  8.8979 22.4943 -0.0000
# 17 vertices

vn 0.0000 0.0000 -1.0000
vn 1.0000 0.0000 -0.0000
vn 0.0000 -1.0000 -0.0000
vn 0.0000 0.0000 1.0000
vn -1.0000 0.0000 -0.0000
vn 0.0000 1.0000 -0.0000
# 6 vertex normals

vt -6.8088 4.6701 0.0000
vt -4.4678 4.6701 0.0000
vt -4.4678 7.4559 0.0000
vt -6.8088 7.4559 0.0000
vt 2.9748 7.4559 0.0000
vt 2.9748 4.6701 0.0000
vt 3.1058 4.6701 0.0000
vt 3.1058 7.4559 0.0000
vt -4.4678 2.9748 0.0000
vt -4.4678 3.1058 0.0000
vt -6.8088 3.1058 0.0000
vt -6.8088 2.9748 0.0000
vt 6.6252 4.8736 0.0000
vt 4.4678 4.6701 0.0000
vt 6.8088 4.6701 0.0000
vt 6.8088 7.4559 0.0000
vt 6.6252 7.1651 0.0000
vt 4.6950 7.1651 0.0000
vt 4.4678 7.4559 0.0000
vt 4.6950 4.8736 0.0000
vt -2.9748 4.6701 0.0000
vt -2.9748 7.4559 0.0000
vt -3.1058 7.4559 0.0000
vt -3.1058 4.6701 0.0000
vt 4.4678 3.1058 0.0000
vt 4.4678 2.9748 0.0000
vt 6.8088 2.9748 0.0000
vt 6.8088 3.1058 0.0000
vt 0.0000 0.0000 0.0000
# 29 texture coords

g Layer0_001
usemtl wire_134110008
s off
f 1/1/1 2/2/1 3/3/1 4/4/1 
f 5/5/2 6/6/2 1/7/2 4/8/2 
f 7/9/3 2/10/3 1/11/3 6/12/3 
f 8/13/4 7/14/4 6/15/4 5/16/4 
f 9/17/4 8/13/4 5/16/4 10/18/4 
f 10/18/4 5/16/4 11/19/4 12/20/4 
f 12/20/4 11/19/4 7/14/4 8/13/4 
f 7/21/5 11/22/5 3/23/5 2/24/5 
f 3/25/6 11/26/6 5/27/6 4/28/6 
f 10/29/2 12/29/2 13/29/2 14/29/2 
f 15/29/4 16/29/4 17/29/4 13/29/4 
f 13/29/4 17/29/4 14/29/4 
f 10/29/3 14/29/3 17/29/3 9/29/3 
f 13/29/6 12/29/6 8/29/6 15/29/6 
f 15/29/6 8/29/6 16/29/6 
f 8/29/5 9/29/5 17/29/5 16/29/5 
# 14 polygons - 2 triangles

